<svg xmlns="http://www.w3.org/2000/svg" viewBox="0 0 1200 900" role="img" aria-label="Illustrations portfolio board">
  <defs>
    <radialGradient id="gIll" cx="30%" cy="30%" r="65%">
      <stop offset="0%" stop-color="#c9a0f5" stop-opacity="0.2"/>
      <stop offset="100%" stop-color="#c9a0f5" stop-opacity="0"/>
    </radialGradient>
  </defs>
  <rect width="1200" height="900" fill="#160f1e"/>
  <rect width="1200" height="900" fill="url(#gIll)"/>

  <!-- Title bar -->
  <text x="80" y="72" fill="#c9a0f5" font-family="Georgia,serif" font-size="40" font-weight="700">Illustrations</text>
  <text x="80" y="106" fill="#6e5080" font-family="Arial,sans-serif" font-size="16" letter-spacing="4">VECTOR + DIGITAL ART PORTFOLIO</text>
  <line x1="80" y1="124" x2="1120" y2="124" stroke="#2e1e42" stroke-width="1.5"/>

  <!-- ── HERO: Figure illustration ── -->
  <rect x="80" y="148" width="480" height="580" rx="20" fill="#1f1630"/>
  <circle cx="320" cy="380" r="180" fill="#c9a0f5" fill-opacity="0.06"/>
  <!-- Head -->
  <circle cx="320" cy="252" r="72" fill="none" stroke="#c9a0f5" stroke-width="2.5"/>
  <circle cx="320" cy="252" r="46" fill="#c9a0f5" fill-opacity="0.12"/>
  <!-- Body -->
  <path d="M 278 322 Q 230 420 250 530 Q 270 600 320 620 Q 370 600 390 530 Q 410 420 362 322 Z"
        fill="#c9a0f5" fill-opacity="0.14" stroke="#c9a0f5" stroke-width="1.5"/>
  <!-- Left arm -->
  <path d="M 262 380 Q 190 370 160 430 Q 140 480 175 520"
        fill="none" stroke="#ffb3c6" stroke-width="2.5" stroke-linecap="round"/>
  <!-- Right arm -->
  <path d="M 378 380 Q 450 370 480 430 Q 500 480 465 520"
        fill="none" stroke="#ffb3c6" stroke-width="2.5" stroke-linecap="round"/>
  <!-- Decorative botanical -->
  <ellipse cx="165" cy="460" rx="32" ry="56" fill="#b5ead7" fill-opacity="0.45" transform="rotate(-22 165 460)"/>
  <ellipse cx="475" cy="460" rx="32" ry="56" fill="#b5ead7" fill-opacity="0.45" transform="rotate(22 475 460)"/>
  <circle cx="152" cy="402" r="16" fill="#ffd6a5" fill-opacity="0.6"/>
  <circle cx="488" cy="402" r="16" fill="#ffd6a5" fill-opacity="0.6"/>
  <!-- Stars -->
  <circle cx="210" cy="200" r="6" fill="#ffd6a5"/>
  <circle cx="430" cy="188" r="5" fill="#ffb3c6"/>
  <circle cx="120" cy="570" r="7" fill="#c9a0f5" fill-opacity="0.7"/>
  <circle cx="520" cy="550" r="6" fill="#a8d8ea" fill-opacity="0.7"/>
  <!-- Label -->
  <text x="320" y="692" fill="#6e5080" font-family="Arial,sans-serif" font-size="14" text-anchor="middle" letter-spacing="3">CHARACTER DESIGN</text>

  <!-- ── GEOMETRIC PATTERN ── -->
  <rect x="600" y="148" width="280" height="280" rx="20" fill="#1f1630"/>
  <circle cx="740" cy="288" r="90" fill="none" stroke="#c9a0f5" stroke-width="2" stroke-opacity="0.7"/>
  <circle cx="740" cy="288" r="62" fill="none" stroke="#ffb3c6" stroke-width="1.5" stroke-opacity="0.6"/>
  <circle cx="740" cy="288" r="36" fill="none" stroke="#ffd6a5" stroke-width="1.5" stroke-opacity="0.7"/>
  <circle cx="740" cy="288" r="12" fill="#c9a0f5" fill-opacity="0.5"/>
  <line x1="740" y1="198" x2="740" y2="148" stroke="#c9a0f5" stroke-width="1" stroke-opacity="0.4"/>
  <line x1="740" y1="378" x2="740" y2="428" stroke="#c9a0f5" stroke-width="1" stroke-opacity="0.4"/>
  <line x1="650" y1="288" x2="600" y2="288" stroke="#c9a0f5" stroke-width="1" stroke-opacity="0.4"/>
  <line x1="830" y1="288" x2="880" y2="288" stroke="#c9a0f5" stroke-width="1" stroke-opacity="0.4"/>
  <text x="740" y="408" fill="#6e5080" font-family="Arial,sans-serif" font-size="13" text-anchor="middle" letter-spacing="3">GEOMETRIC</text>

  <!-- ── BOTANICAL ── -->
  <rect x="920" y="148" width="280" height="280" rx="20" fill="#132418"/>
  <ellipse cx="1060" cy="280" rx="28" ry="60" fill="#b5ead7" fill-opacity="0.55"/>
  <ellipse cx="1010" cy="308" rx="50" ry="22" fill="#4a9e80" fill-opacity="0.38" transform="rotate(-28 1010 308)"/>
  <ellipse cx="1110" cy="308" rx="50" ry="22" fill="#4a9e80" fill-opacity="0.38" transform="rotate(28 1110 308)"/>
  <ellipse cx="1030" cy="258" rx="38" ry="18" fill="#b5ead7" fill-opacity="0.45" transform="rotate(-14 1030 258)"/>
  <ellipse cx="1090" cy="258" rx="38" ry="18" fill="#b5ead7" fill-opacity="0.45" transform="rotate(14 1090 258)"/>
  <circle cx="960" cy="220" r="10" fill="#ffd6a5" fill-opacity="0.6"/>
  <circle cx="1160" cy="210" r="8" fill="#ffd6a5" fill-opacity="0.6"/>
  <line x1="1060" y1="340" x2="1060" y2="395" stroke="#4a9e80" stroke-width="2.5" stroke-opacity="0.5"/>
  <text x="1060" y="415" fill="#4a9e80" font-family="Arial,sans-serif" font-size="13" text-anchor="middle" letter-spacing="3" fill-opacity="0.7">BOTANICAL</text>

  <!-- ── ABSTRACT SHAPES ── -->
  <rect x="600" y="468" width="280" height="260" rx="20" fill="#1a1018"/>
  <circle cx="700" cy="568" r="62" fill="#ffb3c6" fill-opacity="0.28"/>
  <circle cx="760" cy="628" r="50" fill="#ffd6a5" fill-opacity="0.3"/>
  <polygon points="730,528 790,638 670,638" fill="#ff8fa8" fill-opacity="0.22"/>
  <circle cx="732" cy="584" r="22" fill="#ffb3c6" fill-opacity="0.45"/>
  <text x="740" y="700" fill="#6e5080" font-family="Arial,sans-serif" font-size="13" text-anchor="middle" letter-spacing="3">ABSTRACT</text>

  <!-- ── COLOUR PALETTE ── -->
  <rect x="920" y="468" width="280" height="260" rx="20" fill="#1f1630"/>
  <text x="960" y="510" fill="#6e5080" font-family="Arial,sans-serif" font-size="13" letter-spacing="3">PALETTE</text>
  <circle cx="974" cy="568" r="28" fill="#c9a0f5"/>
  <circle cx="1046" cy="568" r="28" fill="#ffb3c6"/>
  <circle cx="1118" cy="568" r="28" fill="#ffd6a5"/>
  <circle cx="974" cy="638" r="28" fill="#b5ead7"/>
  <circle cx="1046" cy="638" r="28" fill="#a8d8ea"/>
  <circle cx="1118" cy="638" r="28" fill="#ff8fa8"/>
  <text x="974" y="693" fill="#3e2848" font-family="Arial,sans-serif" font-size="11" text-anchor="middle">Lavender</text>
  <text x="1046" y="693" fill="#3e2848" font-family="Arial,sans-serif" font-size="11" text-anchor="middle">Rose</text>
  <text x="1118" y="693" fill="#3e2848" font-family="Arial,sans-serif" font-size="11" text-anchor="middle">Peach</text>

  <!-- Footer -->
  <line x1="80" y1="770" x2="1120" y2="770" stroke="#2e1e42" stroke-width="1"/>
  <text x="80" y="800" fill="#6e5080" font-family="Arial,sans-serif" font-size="14" letter-spacing="3">VECTOR + DIGITAL ILLUSTRATION</text>
  <text x="1120" y="800" fill="#c9a0f5" font-family="Georgia,serif" font-size="18" font-weight="700" text-anchor="end">AG Studio</text>
</svg>
